<svg xmlns="http://www.w3.org/2000/svg" style="display:none">
<symbol id="icon-dashboard" viewBox="0 0 24 24">
  <rect x="3" y="3" width="8" height="8" rx="2"/>
  <rect x="13" y="3" width="8" height="5" rx="2"/>
  <rect x="13" y="10" width="8" height="11" rx="2"/>
  <rect x="3" y="13" width="8" height="8" rx="2"/>
</symbol>
<symbol id="icon-campus" viewBox="0 0 24 24">
  <path d="M3 9l9-5 9 5-9 5-9-5z"/>
  <path d="M5 11v4a1 1 0 0 0 1 1h3"/>
  <path d="M19 11v4a1 1 0 0 1-1 1h-3"/>
  <path d="M12 14v7"/>
</symbol>
<symbol id="icon-triage" viewBox="0 0 24 24">
  <path d="M4 18c2-4 4-6 8-6s6 2 8 6"/>
  <circle cx="12" cy="7" r="3"/>
</symbol>
<symbol id="icon-early-warning" viewBox="0 0 24 24">
  <path d="M12 3l10 18H2L12 3z"/>
  <path d="M12 9v5"/>
  <circle cx="12" cy="17" r="1"/>
</symbol>
<symbol id="icon-companion" viewBox="0 0 24 24">
  <rect x="3" y="4" width="18" height="14" rx="3"/>
  <path d="M8 20h8"/>
  <circle cx="9" cy="11" r="1"/>
  <circle cx="15" cy="11" r="1"/>
  <path d="M9 14c1.5 1 4.5 1 6 0"/>
</symbol>
<symbol id="icon-journal" viewBox="0 0 24 24">
  <rect x="6" y="3" width="12" height="18" rx="2"/>
  <path d="M9 7h6M9 11h6M9 15h4"/>
  <path d="M6 7h-2a1 1 0 0 0-1 1v8a1 1 0 0 0 1 1h2"/>
</symbol>
<symbol id="icon-report" viewBox="0 0 24 24">
  <path d="M7 3h7l5 5v11a2 2 0 0 1-2 2H7a2 2 0 0 1-2-2V5a2 2 0 0 1 2-2z"/>
  <path d="M14 3v5h5"/>
  <path d="M8 15l2-2 2 2 4-4"/>
</symbol>
<symbol id="icon-routing" viewBox="0 0 24 24">
  <path d="M7 10a4 4 0 1 1 8 0c0 3-4 8-4 8s-4-5-4-8z"/>
  <circle cx="11" cy="10" r="1.5"/>
  <path d="M6 21h12"/>
</symbol>
<symbol id="icon-directory" viewBox="0 0 24 24">
  <path d="M4 6h12l4 4v8a2 2 0 0 1-2 2H4z"/>
  <path d="M16 6v4h4"/>
  <circle cx="8" cy="13" r="2"/>
  <path d="M4 19c1.2-2 2.8-3 4-3s2.8 1 4 3"/>
</symbol>
<symbol id="icon-hotline" viewBox="0 0 24 24">
  <path d="M22 16.92a4 4 0 0 1-4.5 3.98 19 19 0 0 1-8.42-3.43A19 19 0 0 1 3.7 9.08 4 4 0 0 1 7.68 4.6l1.52.3a2 2 0 0 1 1.57 1.95c0 .53-.21 1.04-.58 1.41L9.5 9a14 14 0 0 0 5.5 5.5l.74-.7c.37-.37.88-.58 1.41-.58a2 2 0 0 1 1.95 1.57l.3 1.53z"/>
</symbol>
<symbol id="icon-shield-check" viewBox="0 0 24 24">
  <path d="M12 3l8 3v6c0 4.5-3.5 7.5-8 9-4.5-1.5-8-4.5-8-9V6l8-3z"/>
  <path d="M9 12l2 2 4-4"/>
</symbol>
<symbol id="icon-privacy-lock" viewBox="0 0 24 24">
  <rect x="4" y="10" width="16" height="10" rx="2"/>
  <path d="M8 10V7a4 4 0 0 1 8 0v3"/>
  <circle cx="12" cy="15" r="1"/>
</symbol>
<symbol id="icon-delete" viewBox="0 0 24 24">
  <path d="M3 6h18"/>
  <path d="M8 6l1-2h6l1 2"/>
  <rect x="6" y="6" width="12" height="14" rx="2"/>
  <path d="M10 10v6M14 10v6"/>
</symbol>
<symbol id="icon-tag" viewBox="0 0 24 24">
  <path d="M20 13l-7 7-8-8V5h7l8 8z"/>
  <circle cx="9.5" cy="8.5" r="1"/>
</symbol>
<symbol id="icon-calendar" viewBox="0 0 24 24">
  <rect x="3" y="5" width="18" height="16" rx="2"/>
  <path d="M16 3v4M8 3v4M3 10h18"/>
  <path d="M8 14h3M14 14h2M8 18h7"/>
</symbol>
<symbol id="icon-clock" viewBox="0 0 24 24">
  <circle cx="12" cy="12" r="8"/>
  <path d="M12 8v5l3 2"/>
</symbol>
<symbol id="icon-people" viewBox="0 0 24 24">
  <circle cx="9" cy="9" r="3"/>
  <circle cx="16" cy="11" r="3"/>
  <path d="M4 20c0-3 3-5 5-5"/>
  <path d="M14 20c0-2.5 2.5-4 5-4"/>
</symbol>
<symbol id="icon-topic-cloud" viewBox="0 0 24 24">
  <path d="M7 18a4 4 0 0 1 0-8 5 5 0 0 1 9-1 4 4 0 0 1 1 7"/>
  <path d="M7 18h9"/>
  <path d="M9 14h2M13 14h3"/>
</symbol>
<symbol id="icon-heatmap" viewBox="0 0 24 24">
  <rect x="4" y="4" width="5" height="5" rx="1"/>
  <rect x="10" y="4" width="5" height="5" rx="1"/>
  <rect x="16" y="4" width="4" height="5" rx="1"/>
  <rect x="4" y="10" width="5" height="5" rx="1"/>
  <rect x="10" y="10" width="5" height="5" rx="1"/>
  <rect x="16" y="10" width="4" height="5" rx="1"/>
  <rect x="4" y="16" width="5" height="4" rx="1"/>
  <rect x="10" y="16" width="5" height="4" rx="1"/>
  <rect x="16" y="16" width="4" height="4" rx="1"/>
</symbol>
<symbol id="icon-screening" viewBox="0 0 24 24">
  <rect x="6" y="3" width="12" height="18" rx="2"/>
  <path d="M9 7h6M9 11h6M9 15h6"/>
  <path d="M7 3v3M17 3v3"/>
</symbol>
<symbol id="icon-mic" viewBox="0 0 24 24">
  <rect x="9" y="3" width="6" height="10" rx="3"/>
  <path d="M5 10a7 7 0 0 0 14 0"/>
  <path d="M12 17v4"/>
</symbol>
<symbol id="icon-voice" viewBox="0 0 24 24">
  <path d="M3 12v-2M6 14v-6M9 16V8M12 18V6M15 16V8M18 14v-6M21 12v-2"/>
</symbol>
<symbol id="icon-heart-rate" viewBox="0 0 24 24">
  <path d="M20.5 8.5a5 5 0 0 0-8.5-1.5A5 5 0 0 0 3.5 8.5c0 5.5 8.5 9 8.5 9s8.5-3.5 8.5-9z"/>
  <path d="M3 12h4l2-3 2 4 2-2h6"/>
</symbol>
<symbol id="icon-sleep" viewBox="0 0 24 24">
  <path d="M20 5a6 6 0 1 1-9 9 7 7 0 0 0 9-9z"/>
  <path d="M5 8l2 .5L6 11l2 .5L6 14"/>
</symbol>
<symbol id="icon-mindfulness" viewBox="0 0 24 24">
  <circle cx="12" cy="8" r="2.5"/>
  <path d="M6 18a6 6 0 0 1 12 0"/>
  <path d="M4 18h16"/>
</symbol>
<symbol id="icon-breathing" viewBox="0 0 24 24">
  <path d="M3 12c3-2 6-2 9 0s6 2 9 0"/>
  <path d="M3 16c3-2 6-2 9 0s6 2 9 0"/>
</symbol>
<symbol id="icon-bell" viewBox="0 0 24 24">
  <path d="M6 10a6 6 0 1 1 12 0v4l2 2H4l2-2v-4"/>
  <path d="M9 19a3 3 0 0 0 6 0"/>
</symbol>
<symbol id="icon-ai-spark" viewBox="0 0 24 24">
  <path d="M12 2v4M12 18v4M2 12h4M18 12h4"/>
  <path d="M6 6l2.5 2.5M15.5 15.5L18 18M6 18l2.5-2.5M15.5 8.5L18 6"/>
  <circle cx="12" cy="12" r="3.5"/>
</symbol>
<symbol id="icon-moon" viewBox="0 0 24 24">
  <path d="M21 12.5A8.5 8.5 0 1 1 11.5 3 6.5 6.5 0 0 0 21 12.5z"/>
</symbol>
<symbol id="icon-key-sso" viewBox="0 0 24 24">
  <circle cx="9" cy="12" r="4"/>
  <path d="M13 12h8M17 10v4"/>
</symbol>
</svg>